<svg xmlns="http://www.w3.org/2000/svg" viewBox="0 0 64 64" role="img" aria-label="Cafetron">
  <defs>
    <linearGradient id="tile" x1="8" y1="8" x2="56" y2="56" gradientUnits="userSpaceOnUse">
      <stop offset="0" stop-color="#173f35"/>
      <stop offset="1" stop-color="#0f2a28"/>
    </linearGradient>
    <linearGradient id="cup" x1="19" y1="29" x2="45" y2="52" gradientUnits="userSpaceOnUse">
      <stop offset="0" stop-color="#fff7df"/>
      <stop offset="1" stop-color="#f7c867"/>
    </linearGradient>
  </defs>
  <rect width="64" height="64" rx="14" fill="url(#tile)"/>
  <path d="M23 20c0-4 5-4 5-8m8 8c0-4 5-4 5-8" fill="none" stroke="#f36f45" stroke-width="4" stroke-linecap="round"/>
  <path d="M17 29h28v10c0 8-6 14-14 14s-14-6-14-14V29Z" fill="url(#cup)"/>
  <path d="M45 32h2c5 0 8 3 8 7s-3 7-8 7h-4" fill="none" stroke="#fff7df" stroke-width="5" stroke-linecap="round"/>
  <path d="M22 33h18" stroke="#0f2a28" stroke-width="4" stroke-linecap="round" opacity=".85"/>
  <circle cx="47" cy="18" r="4" fill="#77d6a6"/>
</svg>
